<svg width="200" height="200" viewBox="0 0 200 200" fill="none" xmlns="http://www.w3.org/2000/svg">
<path d="M31.9 69.8H61.18V71.624H55.9V101.96L56.668 101.768L83.74 71.624H76.156V69.8H92.956V71.624H87.196L70.684 90.056L93.724 135.176H98.908V137H68.092V135.176H72.604L56.764 104.552L55.9 104.744V135.176H61.18V137H31.9V135.176H37.18V71.624H31.9V69.8ZM102.4 69.8H131.68V71.624H126.4V101.96L127.168 101.768L154.24 71.624H146.656V69.8H163.456V71.624H157.696L141.184 90.056L164.224 135.176H169.408V137H138.592V135.176H143.104L127.264 104.552L126.4 104.744V135.176H131.68V137H102.4V135.176H107.68V71.624H102.4V69.8Z" fill="#FFBB55"/>
</svg>
